<?xml version="1.0" encoding="UTF-8" standalone="no"?>
<svg
   xmlns:dc="http://purl.org/dc/elements/1.1/"
   xmlns:cc="http://creativecommons.org/ns#"
   xmlns:rdf="http://www.w3.org/1999/02/22-rdf-syntax-ns#"
   xmlns:svg="http://www.w3.org/2000/svg"
   xmlns="http://www.w3.org/2000/svg"
   xmlns:sodipodi="http://sodipodi.sourceforge.net/DTD/sodipodi-0.dtd"
   xmlns:inkscape="http://www.inkscape.org/namespaces/inkscape"
   id="svg879"
   version="1.1"
   viewBox="0 0 210.39934 60.476906"
   height="60.476906mm"
   width="210.39934mm"
   sodipodi:docname="porcupine.svg"
   inkscape:version="0.92.4 (unknown)">
  <sodipodi:namedview
     pagecolor="#ffffff"
     bordercolor="#666666"
     borderopacity="1"
     objecttolerance="10"
     gridtolerance="10"
     guidetolerance="10"
     inkscape:pageopacity="0"
     inkscape:pageshadow="2"
     inkscape:window-width="1855"
     inkscape:window-height="1056"
     id="namedview829"
     showgrid="false"
     fit-margin-top="5"
     fit-margin-left="5"
     fit-margin-right="5"
     fit-margin-bottom="5"
     inkscape:zoom="0.4823392"
     inkscape:cx="663.90684"
     inkscape:cy="-183.04761"
     inkscape:window-x="65"
     inkscape:window-y="1464"
     inkscape:window-maximized="1"
     inkscape:current-layer="svg879" />
  <defs
     id="defs873" />
  <metadata
     id="metadata876">
    <rdf:RDF>
      <cc:Work
         rdf:about="">
        <dc:format>image/svg+xml</dc:format>
        <dc:type
           rdf:resource="http://purl.org/dc/dcmitype/StillImage" />
        <dc:title></dc:title>
      </cc:Work>
    </rdf:RDF>
  </metadata>
  <g
     transform="translate(-81.071807,-113.30332)"
     id="layer1">
    <g
       id="g25721"
       transform="matrix(1.0493512,-0.26589265,0.26589265,1.0493512,306.88399,-1295.9287)"
       style="stroke:#134747;stroke-opacity:1">
      <path
         style="fill:none;stroke:#134747;stroke-width:2;stroke-linecap:butt;stroke-linejoin:miter;stroke-miterlimit:4;stroke-dasharray:none;stroke-opacity:1"
         d="m -608.05934,1220.0179 c 0.66566,0.6045 1.09622,1.4615 1.18385,2.3564 0.0876,0.8948 -0.16853,1.8191 -0.70429,2.5412 -0.53577,0.7221 -1.34605,1.2352 -2.2279,1.4108 -0.88186,0.1756 -1.82688,0.012 -2.59839,-0.4498 -0.92632,-0.5545 -1.55654,-1.4808 -2.16163,-2.3749 -0.60508,-0.8941 -1.24714,-1.8153 -2.1851,-2.3498 -0.93233,-0.5313 -2.07149,-0.6169 -3.12472,-0.4113 -1.05322,0.2056 -2.03437,0.6821 -2.96245,1.2208 -0.92807,0.5387 -1.81755,1.1446 -2.76862,1.6416 -0.95107,0.497 -1.97926,0.8868 -3.05046,0.9507 -1.30301,0.078 -2.6297,-0.3501 -3.64189,-1.1743 -1.01219,-0.8242 -1.69987,-2.0368 -1.88776,-3.3285 -0.18789,-1.2917 0.12588,-2.6499 0.86132,-3.7283 0.73544,-1.0785 1.88529,-1.8665 3.15644,-2.1632"
         id="path22896"
         transform="translate(121.89732,41.577381)"
         inkscape:connector-curvature="0" />
      <path
         style="fill:none;stroke:#134747;stroke-width:2;stroke-linecap:butt;stroke-linejoin:miter;stroke-miterlimit:4;stroke-dasharray:none;stroke-opacity:1"
         d="m -604.72592,1204.7074 c 0.53177,-4.8769 -0.51865,-9.9138 -2.95543,-14.1716 -2.05973,-3.599 -5.09447,-6.6338 -8.69347,-8.6935"
         id="path22900"
         transform="translate(121.89732,41.577381)"
         inkscape:connector-curvature="0" />
      <path
         style="fill:none;stroke:#134747;stroke-width:2;stroke-linecap:butt;stroke-linejoin:miter;stroke-miterlimit:4;stroke-dasharray:none;stroke-opacity:1"
         d="m -608.91433,1204.1255 c -0.49723,-4.8665 -2.70066,-9.5418 -6.13757,-13.0228 -3.11253,-3.1525 -7.17713,-5.3022 -11.47969,-6.3577 -2.1325,-0.5231 -4.32859,-0.7865 -6.52431,-0.7824"
         id="path22904"
         transform="translate(121.2951,40.22086)"
         inkscape:connector-curvature="0" />
      <path
         style="fill:none;stroke:#134747;stroke-width:2;stroke-linecap:butt;stroke-linejoin:miter;stroke-miterlimit:4;stroke-dasharray:none;stroke-opacity:1"
         d="m -620.58017,1203.0926 c -1.82316,-3.4283 -4.49093,-6.4034 -7.7009,-8.5881 -3.77281,-2.5678 -8.28926,-4.029 -12.85118,-4.1577"
         id="path22908"
         transform="translate(119.38747,40.934501)"
         inkscape:connector-curvature="0" />
      <path
         style="fill:none;stroke:#134747;stroke-width:2;stroke-linecap:butt;stroke-linejoin:miter;stroke-miterlimit:4;stroke-dasharray:none;stroke-opacity:1"
         d="m -614.10697,1204.3319 c -1.55754,-3.7431 -3.96669,-7.129 -6.99254,-9.8274 -2.7363,-2.4402 -5.9726,-4.3172 -9.44941,-5.4807"
         id="path22912"
         transform="translate(120.54737,40.117388)"
         inkscape:connector-curvature="0" />
      <path
         style="fill:none;stroke:#134747;stroke-width:2;stroke-linecap:butt;stroke-linejoin:miter;stroke-miterlimit:4;stroke-dasharray:none;stroke-opacity:1"
         d="m -625.63524,1206.5997 c -2.09756,-4.2823 -5.69482,-7.8117 -10.01635,-9.8273 -1.72061,-0.8025 -3.55019,-1.371 -5.42262,-1.6849"
         id="path22916"
         transform="translate(120.45524,41.893022)"
         inkscape:connector-curvature="0" />
      <path
         style="fill:none;stroke:#134747;stroke-width:2;stroke-linecap:butt;stroke-linejoin:miter;stroke-miterlimit:4;stroke-dasharray:none;stroke-opacity:1"
         d="m -631.74009,1208.593 c -1.47046,-2.7317 -3.6271,-5.0905 -6.21639,-6.7993 -2.53576,-1.6734 -5.48145,-2.7208 -8.50448,-3.0237"
         id="path22920"
         transform="translate(121.89732,41.577381)"
         inkscape:connector-curvature="0" />
      <path
         style="fill:none;stroke:#134747;stroke-width:2;stroke-linecap:butt;stroke-linejoin:miter;stroke-miterlimit:4;stroke-dasharray:none;stroke-opacity:1"
         d="m -636.08709,1211.6269 c -3.68371,-2.9305 -8.14104,-4.8795 -12.79367,-5.5941 -0.50207,-0.077 -1.00631,-0.1401 -1.51191,-0.189"
         id="path22924"
         transform="translate(125.97458,42.191771)"
         inkscape:connector-curvature="0" />
      <path
         style="fill:none;stroke:#134747;stroke-width:2;stroke-linecap:round;stroke-linejoin:miter;stroke-miterlimit:4;stroke-dasharray:none;stroke-opacity:1"
         d="m -482.77374,1248.1046 c 5.78525,2.954 9.08494,5.1752 7.38404,10.2779 -1.88989,4.1577 -10.77231,3.2128 -10.77231,3.2128"
         id="path25699"
         inkscape:connector-curvature="0" />
    </g>
  </g>
  <text
     xml:space="preserve"
     style="font-style:normal;font-variant:normal;font-weight:normal;font-stretch:normal;font-size:21.16666603px;line-height:1.25;font-family:'Liberation Sans';-inkscape-font-specification:'Liberation Sans';letter-spacing:0px;word-spacing:0px;fill:#134747;fill-opacity:1;stroke:none;stroke-width:0.26458335"
     x="81.592979"
     y="28.809406"
     id="text833"><tspan
       sodipodi:role="line"
       x="81.592979"
       y="28.809406"
       style="font-style:normal;font-variant:normal;font-weight:normal;font-stretch:normal;font-size:21.16666603px;font-family:'Liberation Sans';-inkscape-font-specification:'Liberation Sans';fill:#134747;fill-opacity:1;stroke-width:0.26458335"
       id="tspan845">Porcupine</tspan><tspan
       sodipodi:role="line"
       x="81.592979"
       y="55.267742"
       style="font-style:normal;font-variant:normal;font-weight:normal;font-stretch:normal;font-size:21.16666603px;font-family:'Liberation Sans';-inkscape-font-specification:'Liberation Sans';fill:#134747;fill-opacity:1;stroke-width:0.26458335"
       id="tspan835" /></text>
  <text
     xml:space="preserve"
     style="font-style:normal;font-variant:normal;font-weight:normal;font-stretch:normal;font-size:7.05555534px;line-height:1.25;font-family:'Liberation Sans';-inkscape-font-specification:'Liberation Sans';letter-spacing:0px;word-spacing:0px;fill:#134747;fill-opacity:1;stroke:none;stroke-width:0.26458335"
     x="97.326698"
     y="46.513165"
     id="text843"><tspan
       sodipodi:role="line"
       id="tspan841"
       x="97.326698"
       y="46.513165"
       style="font-style:normal;font-variant:normal;font-weight:normal;font-stretch:normal;font-family:'Liberation Sans';-inkscape-font-specification:'Liberation Sans';fill:#134747;fill-opacity:1;stroke-width:0.26458335"><tspan
   style="fill:#134747;fill-opacity:1"
   id="tspan849">Por</tspan>table &amp; Customizable Pipelines</tspan></text>
</svg>
